<svg width="24" height="24" viewBox="0 0 24 24" fill="none" xmlns="http://www.w3.org/2000/svg">
<path d="M10.91 15.242C10.798 15.242 10.7017 15.2053 10.621 15.132C10.5403 15.0573 10.5 14.9597 10.5 14.839V9.162C10.5 9.04067 10.5413 8.943 10.624 8.869C10.7067 8.795 10.8027 8.758 10.912 8.758C10.94 8.758 11.0347 8.80134 11.196 8.888L13.873 11.566C13.935 11.6273 13.9827 11.6937 14.016 11.765C14.0493 11.8363 14.066 11.9147 14.066 12C14.066 12.0853 14.0493 12.1637 14.016 12.235C13.9827 12.3063 13.935 12.373 13.873 12.435L11.196 15.112C11.1593 15.1487 11.1163 15.1797 11.067 15.205C11.0183 15.2297 10.966 15.242 10.91 15.242Z" fill="black"/>
</svg>
