<svg width="782" height="131" viewBox="0 0 782 131" fill="none" xmlns="http://www.w3.org/2000/svg">
<path d="M22.8278 6.71411H0V123.874H18.7993V76.5403H22.8278C42.2985 76.5403 69.4905 73.519 69.4905 41.6272C69.4905 9.5676 42.2985 6.71411 22.8278 6.71411ZM6.71405 23.1635H27.6955C37.4308 23.1635 50.6911 24.6742 50.6911 41.6272C50.6911 58.4123 37.4308 60.0909 27.6955 60.0909H18.7993V32.0597L6.71405 23.1635Z" fill="#191919"/>
<path d="M143.848 5.03552C109.102 5.03552 81.0713 32.0596 81.0713 65.2942C81.0713 98.5287 109.102 125.553 143.848 125.553C178.425 125.553 206.624 98.5287 206.624 65.2942C206.624 32.0596 178.425 5.03552 143.848 5.03552ZM99.5349 65.2942C99.5349 41.1236 119.341 21.485 143.848 21.485C168.354 21.485 188.16 41.1236 188.16 65.2942C188.16 89.4647 168.354 109.103 143.848 109.103C119.341 109.103 99.5349 89.4647 99.5349 65.2942Z" fill="#191919"/>
<path d="M224.919 123.874H243.718V6.71411H224.919V123.874Z" fill="#191919"/>
<path d="M354.836 6.71405V88.4577L274.435 6.71405L267.889 0V123.874H286.688V42.1307L366.921 123.874L373.635 130.588V6.71405H354.836Z" fill="#191919"/>
<path d="M461.756 6.71411H387.733V23.1635H415.261V123.874H434.228V32.0597L421.975 23.1635H461.756V6.71411Z" fill="#191919"/>
<path d="M542.491 23.1635V6.71411H475.854V123.874H542.491V107.425H494.654V67.9799H538.295V51.5304H494.654V33.0668L481.058 23.1635H542.491Z" fill="#191919"/>
<path d="M581.097 107.425V6.71411H562.298V123.874H616.514V107.425H581.097Z" fill="#191919"/>
<path d="M630.444 123.874H649.244V6.71411H630.444V123.874Z" fill="#191919"/>
<path d="M781.678 123.874L731.659 19.6386L722.091 0L662.672 123.874H681.471L691.542 103.061L680.968 95.3395H749.115L762.879 123.874H781.678ZM703.124 78.8901L722.091 39.1094L741.226 78.8901H703.124Z" fill="#191919"/>
</svg>
